<svg width="131" height="41" viewBox="0 0 131 41" fill="none" xmlns="http://www.w3.org/2000/svg">
<path d="M25.1732 39.898L20.9392 27.37H9.45519L4.98919 39.898H9.33919V41H0.465188V39.898H3.19119L17.9812 0.0519983H22.7372L37.3532 39.898H40.0212V41H21.0552V39.898H25.1732ZM15.4292 10.898L9.97719 26.094H20.4752L15.4292 10.898ZM72.1727 0.399997H87.6587V1.502H84.4687V39.898H87.6587V41H69.9687V39.898H73.1587V3.648H72.9267L64.2267 41H56.9767L46.7687 3.474H46.5367V39.898H49.7267V41H41.8387V39.898H45.0287V1.502H41.8387V0.399997H57.4987L65.2127 30.27L72.1727 0.399997ZM130.512 20.004C130.512 27.9693 128.269 33.518 123.784 36.65C119.646 39.55 113.962 41 106.732 41H90.3176V39.898H94.1456V1.502H90.3176V0.399997H108.24C115.664 0.399997 121.232 1.92733 124.944 4.982C128.656 7.998 130.512 13.0053 130.512 20.004ZM105.456 39.898H107.66C111.565 39.898 114.349 38.5253 116.012 35.78C117.713 32.996 118.564 28.356 118.564 21.86V18.496C118.564 9.796 116.901 4.55666 113.576 2.778C111.99 1.92733 109.748 1.502 106.848 1.502H105.456V39.898Z" fill="#F0EBE3"/>
<path d="M0.117188 46.8H132.89V49.7H0.117188V46.8Z" fill="#F0EBE3"/>
</svg>
