<svg width="39" height="39" viewBox="0 0 39 39" fill="none" xmlns="http://www.w3.org/2000/svg">
<circle cx="19.6477" cy="19.0925" r="19.0925" fill="#F0EBE3"/>
<g clip-path="url(#clip0_309_189)">
<mask id="mask0_309_189" style="mask-type:luminance" maskUnits="userSpaceOnUse" x="13" y="9" width="14" height="21">
<path d="M27 9H13V30H27V9Z" fill="white"/>
</mask>
<g mask="url(#mask0_309_189)">
<path d="M20 19.5C20 18.5717 20.3688 17.6815 21.0251 17.0251C21.6815 16.3688 22.5717 16 23.5 16C24.4283 16 25.3185 16.3688 25.9749 17.0251C26.6312 17.6815 27 18.5717 27 19.5C27 20.4283 26.6312 21.3185 25.9749 21.9749C25.3185 22.6312 24.4283 23 23.5 23C22.5717 23 21.6815 22.6312 21.0251 21.9749C20.3688 21.3185 20 20.4283 20 19.5Z" fill="#1ABCFE"/>
<path d="M13 26.5C13 25.5717 13.3687 24.6815 14.0251 24.0251C14.6815 23.3688 15.5717 23 16.5 23H20V26.5C20 27.4283 19.6312 28.3185 18.9749 28.9749C18.3185 29.6312 17.4283 30 16.5 30C15.5717 30 14.6815 29.6312 14.0251 28.9749C13.3687 28.3185 13 27.4283 13 26.5Z" fill="#0ACF83"/>
<path d="M20 9V16H23.5C24.4283 16 25.3185 15.6312 25.9749 14.9749C26.6312 14.3185 27 13.4283 27 12.5C27 11.5717 26.6312 10.6815 25.9749 10.0251C25.3185 9.36875 24.4283 9 23.5 9H20Z" fill="#FF7262"/>
<path d="M13 12.5C13 13.4283 13.3687 14.3185 14.0251 14.9749C14.6815 15.6312 15.5717 16 16.5 16H20V9H16.5C15.5717 9 14.6815 9.36875 14.0251 10.0251C13.3687 10.6815 13 11.5717 13 12.5Z" fill="#F24E1E"/>
<path d="M13 19.5C13 20.4283 13.3687 21.3185 14.0251 21.9749C14.6815 22.6312 15.5717 23 16.5 23H20V16H16.5C15.5717 16 14.6815 16.3688 14.0251 17.0251C13.3687 17.6815 13 18.5717 13 19.5Z" fill="#A259FF"/>
</g>
</g>
<defs>
<clipPath id="clip0_309_189">
<rect width="14" height="21" fill="white" transform="translate(13 9)"/>
</clipPath>
</defs>
</svg>
