<svg width="23" height="28" viewBox="0 0 23 28" fill="none" xmlns="http://www.w3.org/2000/svg">
<path d="M5.71406 22.05H17.2859V19.95H5.71406V22.05ZM5.71406 16.1H17.2859V14H5.71406V16.1ZM2.15625 28C1.58125 28 1.07812 27.79 0.646875 27.37C0.215625 26.95 0 26.46 0 25.9V2.1C0 1.54 0.215625 1.05 0.646875 0.63C1.07812 0.21 1.58125 0 2.15625 0H15.1297L23 7.665V25.9C23 26.46 22.7844 26.95 22.3531 27.37C21.9219 27.79 21.4187 28 20.8438 28H2.15625ZM14.0516 8.61V2.1H2.15625V25.9H20.8438V8.61H14.0516Z" fill="white"/>
</svg>
