<svg width="28" height="28" viewBox="0 0 28 28" fill="none" xmlns="http://www.w3.org/2000/svg">
<circle cx="14.0407" cy="13.6802" r="13.6802" fill="#F0EBE3"/>
<g clip-path="url(#clip0_78_71)">
<path fill-rule="evenodd" clip-rule="evenodd" d="M13.8448 5.47217C9.22513 5.47217 5.4906 9.23423 5.4906 13.8884C5.4906 17.6088 7.88344 20.758 11.203 21.8725C11.618 21.9563 11.77 21.6915 11.77 21.4686C11.77 21.2735 11.7563 20.6047 11.7563 19.9079C9.43239 20.4096 8.94845 18.9046 8.94845 18.9046C8.57498 17.9292 8.02161 17.6785 8.02161 17.6785C7.26099 17.163 8.07702 17.163 8.07702 17.163C8.92075 17.2187 9.36347 18.0269 9.36347 18.0269C10.1102 19.3087 11.3136 18.9465 11.7977 18.7235C11.8668 18.1801 12.0882 17.8039 12.3234 17.5949C10.4699 17.3998 8.51975 16.6753 8.51975 13.4424C8.51975 12.5228 8.85149 11.7704 9.37716 11.1852C9.29422 10.9762 9.00368 10.1122 9.46026 8.95567C9.46026 8.95567 10.1656 8.73268 11.7561 9.81958C12.4371 9.63535 13.1393 9.54163 13.8448 9.54084C14.5502 9.54084 15.2692 9.63848 15.9332 9.81958C17.5239 8.73268 18.2293 8.95567 18.2293 8.95567C18.6859 10.1122 18.3952 10.9762 18.3122 11.1852C18.8517 11.7704 19.1698 12.5228 19.1698 13.4424C19.1698 16.6753 17.2197 17.3858 15.3523 17.5949C15.6567 17.8596 15.9194 18.3612 15.9194 19.1555C15.9194 20.2841 15.9057 21.1899 15.9057 21.4685C15.9057 21.6915 16.0579 21.9563 16.4728 21.8727C19.7923 20.7578 22.1851 17.6088 22.1851 13.8884C22.1988 9.23423 18.4506 5.47217 13.8448 5.47217Z" fill="#24292F"/>
</g>
<defs>
<clipPath id="clip0_78_71">
<rect width="16.7583" height="16.4163" fill="white" transform="translate(5.4906 5.47217)"/>
</clipPath>
</defs>
</svg>
