<svg width="27" height="28" viewBox="0 0 27 28" fill="none" xmlns="http://www.w3.org/2000/svg">
<path d="M0 20.6833V2.08335C0 1.77224 0.144444 1.46113 0.433333 1.15002C0.722222 0.838905 1.02222 0.68335 1.33333 0.68335H18.6333C18.9667 0.68335 19.2778 0.83335 19.5667 1.13335C19.8556 1.43335 20 1.75002 20 2.08335V13.95C20 14.2611 19.8556 14.5722 19.5667 14.8833C19.2778 15.1945 18.9667 15.35 18.6333 15.35H5.33333L0 20.6833ZM6.7 22.0167C6.38889 22.0167 6.08333 21.8611 5.78333 21.55C5.48333 21.2389 5.33333 20.9278 5.33333 20.6167V17.35H22V6.01668H25.3333C25.6444 6.01668 25.9444 6.17224 26.2333 6.48335C26.5222 6.79446 26.6667 7.11668 26.6667 7.45002V27.3167L21.3667 22.0167H6.7ZM18 2.68335H2V15.85L4.5 13.35H18V2.68335Z" fill="white"/>
</svg>
